<svg width="207" height="19" viewBox="0 0 207 19" fill="none" xmlns="http://www.w3.org/2000/svg">
<path d="M0 0.366699H16.9931C19.2276 0.366699 21.0391 2.17916 21.0391 4.41494C21.0391 6.65073 19.2276 8.46317 16.9931 8.46317H0V0.366699Z" fill="white"/>
<path d="M22.6578 0.366699H39.6509C41.8854 0.366699 43.6969 2.17916 43.6969 4.41494C43.6969 6.65073 41.8854 8.46317 39.6509 8.46317H22.6578V0.366699Z" fill="white"/>
<path d="M45.315 5.22459C45.315 2.54165 47.4887 0.366699 50.1702 0.366699H61.4989C64.1804 0.366699 66.3541 2.54165 66.3541 5.22459V8.46317H45.315V5.22459Z" fill="white"/>
<path d="M66.3541 13.3209C66.3541 16.0038 64.1804 18.1788 61.4989 18.1788H50.1702C47.4887 18.1788 45.315 16.0038 45.315 13.3209V10.0823H66.3541V13.3209Z" fill="white"/>
<path d="M0 10.0823H16.9931C19.2276 10.0823 21.0391 11.8948 21.0391 14.1305C21.0391 16.3664 19.2276 18.1788 16.9931 18.1788H0V10.0823Z" fill="white"/>
<path d="M22.6578 10.0823H38.8417C41.5231 10.0823 43.6969 12.2572 43.6969 14.9402V18.1788H22.6578V10.0823Z" fill="white"/>
<path d="M82.7048 17.8337C85.9536 17.8337 88.2009 15.9284 88.2009 13.1926C88.2009 11.0186 86.6864 9.40645 84.317 9.04005C86.4177 8.52709 87.8345 7.01263 87.8345 5.05849C87.8345 2.49369 85.6605 0.734961 82.5583 0.734961H74.4486V17.8337H82.7048ZM77.3554 3.34862H82.6804C83.9995 3.34862 84.9277 4.25241 84.9277 5.5226C84.9277 6.8905 83.9262 7.86756 82.4606 7.86756H77.3554V3.34862ZM77.3554 10.4079H82.5827C84.146 10.4079 85.2208 11.385 85.2208 12.7773C85.2208 14.1452 84.317 15.1956 82.8514 15.1956H77.3554V10.4079Z" fill="white"/>
<path d="M92.6656 17.8337V11.385H97.6731C98.4547 11.385 99.0165 11.7514 99.2608 12.4354L101.239 17.8337H104.366L102.168 11.9468C101.752 10.8965 100.946 10.2125 99.8226 9.99269C102.094 9.40645 103.584 7.67215 103.584 5.57145C103.584 2.71353 101.337 0.734961 98.0883 0.734961H89.7344V17.8337H92.6656ZM92.6656 3.37305H97.9418C99.6028 3.37305 100.678 4.44782 100.678 6.01113C100.678 7.50116 99.7493 8.79578 97.9418 8.79578H92.6656V3.37305Z" fill="white"/>
<path d="M113.002 18.2001C118.278 18.2001 121.576 14.4628 121.576 9.23546C121.576 3.86158 118.083 0.368561 113.002 0.368561C107.75 0.368561 104.477 4.057 104.477 9.23546C104.477 14.6826 107.946 18.2001 113.002 18.2001ZM113.002 15.5376C109.607 15.5376 107.457 13.0949 107.457 9.23546C107.457 5.42489 109.607 3.00665 113.002 3.00665C116.422 3.00665 118.596 5.42489 118.596 9.23546C118.596 13.0949 116.422 15.5376 113.002 15.5376Z" fill="white"/>
<path d="M129.405 17.8337L132.849 5.05849L136.318 17.8337H139.518L144.354 0.734961H141.301L137.735 13.5834L134.217 0.734961H131.482L127.989 13.559L124.422 0.734961H121.369L126.205 17.8337H129.405Z" fill="white"/>
<path d="M152.686 18.2001C157.962 18.2001 161.26 14.4628 161.26 9.23546C161.26 3.86158 157.767 0.368561 152.686 0.368561C147.434 0.368561 144.161 4.057 144.161 9.23546C144.161 14.6826 147.63 18.2001 152.686 18.2001ZM152.686 15.5376C149.291 15.5376 147.141 13.0949 147.141 9.23546C147.141 5.42489 149.291 3.00665 152.686 3.00665C156.106 3.00665 158.28 5.42489 158.28 9.23546C158.28 13.0949 156.106 15.5376 152.686 15.5376Z" fill="white"/>
<path d="M165.736 17.8337V11.385H170.743C171.525 11.385 172.087 11.7514 172.331 12.4354L174.31 17.8337H177.436L175.238 11.9468C174.823 10.8965 174.016 10.2125 172.893 9.99269C175.165 9.40645 176.655 7.67215 176.655 5.57145C176.655 2.71353 174.407 0.734961 171.159 0.734961H162.805V17.8337H165.736ZM165.736 3.37305H171.012C172.673 3.37305 173.748 4.44782 173.748 6.01113C173.748 7.50116 172.82 8.79578 171.012 8.79578H165.736V3.37305Z" fill="white"/>
<path d="M181.499 17.8337V12.7529L184.259 9.87055L189.877 17.8337H193.468L186.286 7.74543L192.979 0.734961H189.266L181.499 9.11333V0.734961H178.567V17.8337H181.499Z" fill="white"/>
<path d="M200.625 18.2001C204.533 18.2001 207 16.2459 207 13.1437C207 9.91941 204.46 9.04005 202.041 8.28282L199.452 7.47674C197.791 6.93935 196.301 6.57295 196.301 5.08292C196.301 3.76387 197.522 2.98222 199.403 2.98222C201.968 2.98222 203.385 4.27684 203.507 6.20655H206.487C206.267 2.59139 203.629 0.368561 199.501 0.368561C195.715 0.368561 193.394 2.4204 193.394 5.22948C193.394 8.57594 196.521 9.4553 198.524 10.066L201.309 10.8965C202.97 11.4094 204.02 11.9468 204.02 13.2903C204.02 14.7315 202.847 15.5864 200.625 15.5864C197.889 15.5864 196.179 14.4139 195.91 12.5575H192.906C193.126 15.9528 196.13 18.2001 200.625 18.2001Z" fill="white"/>
</svg>
